<svg width="18" height="14" viewBox="0 0 18 14" fill="none" xmlns="http://www.w3.org/2000/svg">
<path d="M1.42442 7.97643C1.13978 7.35716 1.13978 6.64275 1.42442 6.02349C2.742 3.15698 5.63866 1.16663 9.00019 1.16663C12.3617 1.16663 15.2584 3.15698 16.576 6.02349C16.8606 6.64276 16.8606 7.35717 16.576 7.97643C15.2584 10.8429 12.3617 12.8333 9.00019 12.8333C5.63866 12.8333 2.74201 10.8429 1.42442 7.97643Z" stroke="#807D7E" stroke-width="1.5"/>
<path d="M11.5002 6.99996C11.5002 8.38067 10.3809 9.49996 9.00019 9.49996C7.61948 9.49996 6.50019 8.38067 6.50019 6.99996C6.50019 5.61925 7.61948 4.49996 9.00019 4.49996C10.3809 4.49996 11.5002 5.61925 11.5002 6.99996Z" stroke="#807D7E" stroke-width="1.5"/>
</svg>
